<?xml version="1.0" encoding="UTF-8" standalone="no"?>
<!DOCTYPE svg PUBLIC "-//W3C//DTD SVG 1.1//EN" "http://www.w3.org/Graphics/SVG/1.1/DTD/svg11.dtd">
<svg width="100%" height="100%" viewBox="0 0 1176 302" version="1.1" xmlns="http://www.w3.org/2000/svg" xmlns:xlink="http://www.w3.org/1999/xlink" xml:space="preserve" xmlns:serif="http://www.serif.com/" style="fill-rule:evenodd;clip-rule:evenodd;stroke-linejoin:round;stroke-miterlimit:2;">
    <g transform="matrix(1,0,0,1,-52.0703,-209.47)">
        <g transform="matrix(1,0,0,1,-419.09,154.749)">
            <g transform="matrix(346,0,0,346,451.563,355.781)">
                <path d="M0.425,0L0.32,0L0.201,-0.425L0.201,-0.87L0.209,-0.87L0.425,0ZM0.383,-0.274L0.53,-0.87L0.541,-0.87L0.541,-0.425L0.433,-0.069L0.383,-0.274ZM0.057,0L0.057,-0.87L0.176,-0.87L0.176,0L0.057,0ZM0.565,0L0.565,-0.87L0.685,-0.87L0.685,0L0.565,0Z" style="fill:rgb(0,209,178);fill-rule:nonzero;"/>
            </g>
            <g transform="matrix(346,0,0,346,708.021,355.781)">
                <path d="M0.319,0L0.169,0L0.169,-0.284L0.001,-0.87L0.143,-0.87L0.319,-0.166L0.319,0ZM0.258,-0.514L0.319,-0.87L0.488,-0.87L0.319,-0.267L0.258,-0.514Z" style="fill:rgb(0,209,178);fill-rule:nonzero;"/>
            </g>
            <g transform="matrix(346,0,0,346,877.305,355.781)">
                <path d="M0.294,-0.729L0.294,0L0.139,0L0.139,-0.729L0.294,-0.729ZM0.002,-0.87L0.429,-0.87L0.429,-0.754L0.002,-0.754L0.002,-0.87Z" style="fill:rgb(0,209,178);fill-rule:nonzero;"/>
            </g>
            <g transform="matrix(346,0,0,346,1026.65,355.781)">
                <path d="M0.523,-0.87L0.523,0L0.368,0L0.368,-0.396L0.235,-0.396L0.235,-0.494L0.368,-0.494L0.368,-0.87L0.523,-0.87ZM0.211,0L0.057,0L0.057,-0.87L0.211,-0.87L0.211,0Z" style="fill:rgb(0,209,178);fill-rule:nonzero;"/>
            </g>
            <g transform="matrix(346,0,0,346,1227.19,355.781)">
                <path d="M0.235,-0.503L0.284,-0.503C0.3,-0.503 0.314,-0.508 0.324,-0.517C0.334,-0.527 0.342,-0.538 0.347,-0.551C0.353,-0.565 0.356,-0.579 0.358,-0.593C0.36,-0.608 0.361,-0.621 0.361,-0.631C0.361,-0.642 0.36,-0.655 0.358,-0.669C0.357,-0.684 0.353,-0.697 0.348,-0.71C0.343,-0.723 0.336,-0.734 0.327,-0.743C0.318,-0.751 0.306,-0.756 0.291,-0.756L0.235,-0.756L0.235,-0.87L0.257,-0.87C0.298,-0.87 0.334,-0.866 0.366,-0.857C0.399,-0.848 0.426,-0.834 0.448,-0.815C0.469,-0.797 0.486,-0.773 0.498,-0.745C0.509,-0.716 0.515,-0.682 0.515,-0.642C0.515,-0.622 0.514,-0.602 0.512,-0.582C0.511,-0.561 0.506,-0.541 0.499,-0.522C0.492,-0.503 0.481,-0.485 0.467,-0.469C0.452,-0.453 0.432,-0.438 0.405,-0.427L0.529,0L0.371,0L0.27,-0.406L0.235,-0.406L0.235,-0.503ZM0.057,0L0.057,-0.87L0.211,-0.87L0.211,0L0.057,0Z" style="fill:rgb(0,209,178);fill-rule:nonzero;"/>
            </g>
            <g transform="matrix(346,0,0,346,1416.24,355.781)">
                <rect x="0.056" y="-0.87" width="0.155" height="0.87" style="fill:rgb(0,209,178);fill-rule:nonzero;"/>
            </g>
            <g transform="matrix(346,0,0,346,1508.82,355.781)">
                <path d="M0.057,0L0.057,-0.87L0.211,-0.87L0.211,0L0.057,0ZM0.235,-0.108L0.399,-0.108L0.399,0L0.235,0L0.235,-0.108Z" style="fill:rgb(0,209,178);fill-rule:nonzero;"/>
            </g>
        </g>
    </g>
</svg>
